<mxfile host="Electron" modified="2024-12-20T16:33:14.416Z" agent="Mozilla/5.0 (X11; Linux x86_64) AppleWebKit/537.36 (KHTML, like Gecko) draw.io/24.6.1 Chrome/124.0.6367.207 Electron/30.0.6 Safari/537.36" etag="kARTUJqWa4vT0n55w_vU" version="24.6.1" type="device">
  <diagram name="Page-1" id="VREW-hk0Lx_VM9Mob7_j">
    <mxGraphModel dx="-578" dy="222" grid="1" gridSize="10" guides="1" tooltips="1" connect="1" arrows="1" fold="1" page="1" pageScale="1" pageWidth="850" pageHeight="1100" math="0" shadow="0">
      <root>
        <mxCell id="0" />
        <mxCell id="1" parent="0" />
        <mxCell id="7Kr2viDx5YM8dAjct77x-1" value="act Using Celestial Object Function, Load Object" style="shape=umlFrame;whiteSpace=wrap;html=1;pointerEvents=0;width=280;height=30;" vertex="1" parent="1">
          <mxGeometry x="2910" y="1440" width="900" height="570" as="geometry" />
        </mxCell>
        <mxCell id="7Kr2viDx5YM8dAjct77x-2" value="&lt;span style=&quot;font-size: 11px;&quot;&gt;QSS Library (Runtime)&lt;/span&gt;" style="swimlane;startSize=50;horizontal=0;html=1;whiteSpace=wrap;" vertex="1" parent="1">
          <mxGeometry x="2930" y="1480" width="860" height="320" as="geometry" />
        </mxCell>
        <mxCell id="7Kr2viDx5YM8dAjct77x-3" value="Request to load&lt;div&gt;Celestial Object&lt;/div&gt;" style="shape=rect;html=1;rounded=1;whiteSpace=wrap;align=center;fontSize=10;" vertex="1" parent="7Kr2viDx5YM8dAjct77x-2">
          <mxGeometry x="150" y="25" width="110" height="50" as="geometry" />
        </mxCell>
        <mxCell id="7Kr2viDx5YM8dAjct77x-4" value="" style="edgeStyle=orthogonalEdgeStyle;rounded=0;orthogonalLoop=1;jettySize=auto;html=1;" edge="1" parent="7Kr2viDx5YM8dAjct77x-2" source="7Kr2viDx5YM8dAjct77x-5" target="7Kr2viDx5YM8dAjct77x-3">
          <mxGeometry relative="1" as="geometry" />
        </mxCell>
        <mxCell id="7Kr2viDx5YM8dAjct77x-5" value="" style="shape=ellipse;html=1;fillColor=strokeColor;strokeWidth=2;verticalLabelPosition=bottom;verticalAlignment=top;perimeter=ellipsePerimeter;" vertex="1" parent="7Kr2viDx5YM8dAjct77x-2">
          <mxGeometry x="70" y="30" width="40" height="40" as="geometry" />
        </mxCell>
        <mxCell id="7Kr2viDx5YM8dAjct77x-6" value="" style="edgeStyle=orthogonalEdgeStyle;rounded=0;orthogonalLoop=1;jettySize=auto;html=1;entryX=0;entryY=0.5;entryDx=0;entryDy=0;entryPerimeter=0;" edge="1" parent="7Kr2viDx5YM8dAjct77x-2" source="7Kr2viDx5YM8dAjct77x-7" target="7Kr2viDx5YM8dAjct77x-30">
          <mxGeometry relative="1" as="geometry">
            <mxPoint x="670" y="275" as="targetPoint" />
          </mxGeometry>
        </mxCell>
        <mxCell id="7Kr2viDx5YM8dAjct77x-7" value="" style="strokeWidth=2;html=1;shape=mxgraph.flowchart.decision;whiteSpace=wrap;" vertex="1" parent="7Kr2viDx5YM8dAjct77x-2">
          <mxGeometry x="570" y="245" width="60" height="60" as="geometry" />
        </mxCell>
        <mxCell id="7Kr2viDx5YM8dAjct77x-8" value="" style="html=1;shape=mxgraph.sysml.actFinal;strokeWidth=2;verticalLabelPosition=bottom;verticalAlignment=top;" vertex="1" parent="7Kr2viDx5YM8dAjct77x-2">
          <mxGeometry x="810" y="30" width="40" height="40" as="geometry" />
        </mxCell>
        <mxCell id="7Kr2viDx5YM8dAjct77x-9" value="" style="edgeStyle=orthogonalEdgeStyle;rounded=0;orthogonalLoop=1;jettySize=auto;html=1;exitX=1;exitY=0.5;exitDx=0;exitDy=0;exitPerimeter=0;" edge="1" parent="7Kr2viDx5YM8dAjct77x-2" source="7Kr2viDx5YM8dAjct77x-28" target="7Kr2viDx5YM8dAjct77x-7">
          <mxGeometry relative="1" as="geometry">
            <mxPoint x="530" y="275" as="sourcePoint" />
          </mxGeometry>
        </mxCell>
        <mxCell id="7Kr2viDx5YM8dAjct77x-10" style="edgeStyle=orthogonalEdgeStyle;rounded=0;orthogonalLoop=1;jettySize=auto;html=1;entryX=0;entryY=0.5;entryDx=0;entryDy=0;" edge="1" parent="7Kr2viDx5YM8dAjct77x-2" source="7Kr2viDx5YM8dAjct77x-12" target="7Kr2viDx5YM8dAjct77x-13">
          <mxGeometry relative="1" as="geometry">
            <Array as="points">
              <mxPoint x="380" y="115" />
              <mxPoint x="380" y="115" />
            </Array>
          </mxGeometry>
        </mxCell>
        <mxCell id="7Kr2viDx5YM8dAjct77x-11" style="edgeStyle=orthogonalEdgeStyle;rounded=0;orthogonalLoop=1;jettySize=auto;html=1;entryX=0;entryY=0.5;entryDx=0;entryDy=0;" edge="1" parent="7Kr2viDx5YM8dAjct77x-2" source="7Kr2viDx5YM8dAjct77x-12" target="7Kr2viDx5YM8dAjct77x-14">
          <mxGeometry relative="1" as="geometry">
            <Array as="points">
              <mxPoint x="380" y="175" />
              <mxPoint x="380" y="175" />
            </Array>
          </mxGeometry>
        </mxCell>
        <mxCell id="7Kr2viDx5YM8dAjct77x-12" value="" style="html=1;points=[];perimeter=orthogonalPerimeter;fillColor=strokeColor;" vertex="1" parent="7Kr2viDx5YM8dAjct77x-2">
          <mxGeometry x="360" y="90" width="5" height="110" as="geometry" />
        </mxCell>
        <mxCell id="7Kr2viDx5YM8dAjct77x-13" value="Check object&#39;s&lt;div&gt;version&lt;/div&gt;" style="shape=rect;html=1;rounded=1;whiteSpace=wrap;align=center;fontSize=10;" vertex="1" parent="7Kr2viDx5YM8dAjct77x-2">
          <mxGeometry x="400" y="90" width="110" height="50" as="geometry" />
        </mxCell>
        <mxCell id="7Kr2viDx5YM8dAjct77x-14" value="Check object&#39;s&lt;div&gt;properties&lt;/div&gt;" style="shape=rect;html=1;rounded=1;whiteSpace=wrap;align=center;fontSize=10;" vertex="1" parent="7Kr2viDx5YM8dAjct77x-2">
          <mxGeometry x="400" y="150" width="110" height="50" as="geometry" />
        </mxCell>
        <mxCell id="7Kr2viDx5YM8dAjct77x-15" value="" style="edgeStyle=orthogonalEdgeStyle;rounded=0;orthogonalLoop=1;jettySize=auto;html=1;" edge="1" parent="7Kr2viDx5YM8dAjct77x-2" source="7Kr2viDx5YM8dAjct77x-16" target="7Kr2viDx5YM8dAjct77x-23">
          <mxGeometry relative="1" as="geometry" />
        </mxCell>
        <mxCell id="7Kr2viDx5YM8dAjct77x-16" value="" style="html=1;points=[];perimeter=orthogonalPerimeter;fillColor=strokeColor;" vertex="1" parent="7Kr2viDx5YM8dAjct77x-2">
          <mxGeometry x="540" y="90" width="5" height="110" as="geometry" />
        </mxCell>
        <mxCell id="7Kr2viDx5YM8dAjct77x-17" style="edgeStyle=orthogonalEdgeStyle;rounded=0;orthogonalLoop=1;jettySize=auto;html=1;entryX=-0.004;entryY=0.775;entryDx=0;entryDy=0;entryPerimeter=0;" edge="1" parent="7Kr2viDx5YM8dAjct77x-2" source="7Kr2viDx5YM8dAjct77x-14" target="7Kr2viDx5YM8dAjct77x-16">
          <mxGeometry relative="1" as="geometry" />
        </mxCell>
        <mxCell id="7Kr2viDx5YM8dAjct77x-18" style="edgeStyle=orthogonalEdgeStyle;rounded=0;orthogonalLoop=1;jettySize=auto;html=1;entryX=-0.004;entryY=0.775;entryDx=0;entryDy=0;entryPerimeter=0;exitX=1;exitY=0.5;exitDx=0;exitDy=0;" edge="1" parent="7Kr2viDx5YM8dAjct77x-2" source="7Kr2viDx5YM8dAjct77x-13">
          <mxGeometry relative="1" as="geometry">
            <mxPoint x="510" y="114.94999999999982" as="sourcePoint" />
            <mxPoint x="540" y="114.94999999999982" as="targetPoint" />
          </mxGeometry>
        </mxCell>
        <mxCell id="7Kr2viDx5YM8dAjct77x-19" style="edgeStyle=orthogonalEdgeStyle;rounded=0;orthogonalLoop=1;jettySize=auto;html=1;entryX=-0.108;entryY=0.495;entryDx=0;entryDy=0;entryPerimeter=0;exitX=0.5;exitY=0;exitDx=5;exitDy=0;exitPerimeter=0;" edge="1" parent="7Kr2viDx5YM8dAjct77x-2" source="7Kr2viDx5YM8dAjct77x-30" target="7Kr2viDx5YM8dAjct77x-12">
          <mxGeometry relative="1" as="geometry">
            <Array as="points">
              <mxPoint x="735" y="220" />
              <mxPoint x="330" y="220" />
              <mxPoint x="330" y="145" />
            </Array>
            <mxPoint x="725.0000000000009" y="250" as="sourcePoint" />
          </mxGeometry>
        </mxCell>
        <mxCell id="7Kr2viDx5YM8dAjct77x-20" value="" style="edgeStyle=orthogonalEdgeStyle;rounded=0;orthogonalLoop=1;jettySize=auto;html=1;" edge="1" parent="7Kr2viDx5YM8dAjct77x-2" source="7Kr2viDx5YM8dAjct77x-23" target="7Kr2viDx5YM8dAjct77x-24">
          <mxGeometry relative="1" as="geometry" />
        </mxCell>
        <mxCell id="7Kr2viDx5YM8dAjct77x-21" value="" style="edgeStyle=orthogonalEdgeStyle;rounded=0;orthogonalLoop=1;jettySize=auto;html=1;" edge="1" parent="7Kr2viDx5YM8dAjct77x-2" source="7Kr2viDx5YM8dAjct77x-23" target="7Kr2viDx5YM8dAjct77x-25">
          <mxGeometry relative="1" as="geometry" />
        </mxCell>
        <mxCell id="7Kr2viDx5YM8dAjct77x-22" value="&lt;font style=&quot;font-size: 7px;&quot;&gt;[ not compatible ]&lt;/font&gt;" style="edgeLabel;html=1;align=center;verticalAlign=middle;resizable=0;points=[];" vertex="1" connectable="0" parent="7Kr2viDx5YM8dAjct77x-21">
          <mxGeometry x="-0.1661" relative="1" as="geometry">
            <mxPoint as="offset" />
          </mxGeometry>
        </mxCell>
        <mxCell id="7Kr2viDx5YM8dAjct77x-23" value="" style="strokeWidth=2;html=1;shape=mxgraph.flowchart.decision;whiteSpace=wrap;" vertex="1" parent="7Kr2viDx5YM8dAjct77x-2">
          <mxGeometry x="590" y="115" width="60" height="60" as="geometry" />
        </mxCell>
        <mxCell id="7Kr2viDx5YM8dAjct77x-24" value="Load loaded object&lt;div&gt;on parent object&lt;/div&gt;" style="shape=rect;html=1;rounded=1;whiteSpace=wrap;align=center;fontSize=10;" vertex="1" parent="7Kr2viDx5YM8dAjct77x-2">
          <mxGeometry x="690" y="120" width="110" height="50" as="geometry" />
        </mxCell>
        <mxCell id="7Kr2viDx5YM8dAjct77x-25" value="Raise runtime error" style="shape=rect;html=1;rounded=1;whiteSpace=wrap;align=center;fontSize=10;" vertex="1" parent="7Kr2viDx5YM8dAjct77x-2">
          <mxGeometry x="565" y="25" width="110" height="50" as="geometry" />
        </mxCell>
        <mxCell id="7Kr2viDx5YM8dAjct77x-26" style="edgeStyle=orthogonalEdgeStyle;rounded=0;orthogonalLoop=1;jettySize=auto;html=1;entryX=0;entryY=0.5;entryDx=0;entryDy=0;entryPerimeter=0;" edge="1" parent="7Kr2viDx5YM8dAjct77x-2" source="7Kr2viDx5YM8dAjct77x-25" target="7Kr2viDx5YM8dAjct77x-8">
          <mxGeometry relative="1" as="geometry" />
        </mxCell>
        <mxCell id="7Kr2viDx5YM8dAjct77x-27" style="edgeStyle=orthogonalEdgeStyle;rounded=0;orthogonalLoop=1;jettySize=auto;html=1;entryX=0.5;entryY=1;entryDx=0;entryDy=0;entryPerimeter=0;" edge="1" parent="7Kr2viDx5YM8dAjct77x-2" source="7Kr2viDx5YM8dAjct77x-24" target="7Kr2viDx5YM8dAjct77x-8">
          <mxGeometry relative="1" as="geometry" />
        </mxCell>
        <mxCell id="7Kr2viDx5YM8dAjct77x-28" value="Load file from&amp;nbsp; &amp;nbsp;&amp;nbsp;&lt;div&gt;operating system&#39;s&amp;nbsp; &amp;nbsp;&amp;nbsp;&lt;/div&gt;&lt;div&gt;&lt;span style=&quot;background-color: initial;&quot;&gt;storage&amp;nbsp; &amp;nbsp;&amp;nbsp;&lt;/span&gt;&lt;/div&gt;" style="html=1;shape=mxgraph.sysml.objFlowR;whiteSpace=wrap;fontSize=10;" vertex="1" parent="7Kr2viDx5YM8dAjct77x-2">
          <mxGeometry x="420" y="250" width="110" height="50" as="geometry" />
        </mxCell>
        <mxCell id="7Kr2viDx5YM8dAjct77x-29" value="" style="points=[[0.25,0,0],[0.5,0,0],[0.75,0,0],[1,0.25,0],[1,0.5,0],[1,0.75,0],[0.75,1,0],[0.5,1,0],[0.25,1,0],[0,0.75,0],[0,0.5,0],[0,0.25,0]];rounded=1;arcSize=10;dashed=1;fillColor=none;gradientColor=none;strokeWidth=1;whiteSpace=wrap;html=1;" vertex="1" parent="7Kr2viDx5YM8dAjct77x-2">
          <mxGeometry x="400" y="240" width="150" height="250" as="geometry" />
        </mxCell>
        <mxCell id="7Kr2viDx5YM8dAjct77x-30" value="&amp;nbsp; &amp;nbsp; Check object&lt;div&gt;&amp;nbsp; &amp;nbsp; compatibility&lt;/div&gt;" style="html=1;shape=mxgraph.sysml.objFlowL;whiteSpace=wrap;fontSize=10;" vertex="1" parent="7Kr2viDx5YM8dAjct77x-2">
          <mxGeometry x="675" y="250" width="110" height="50" as="geometry" />
        </mxCell>
        <mxCell id="7Kr2viDx5YM8dAjct77x-31" value="&lt;span style=&quot;font-size: 11px;&quot;&gt;User&lt;/span&gt;&lt;div style=&quot;font-size: 11px;&quot;&gt;(Developer, Astronomer)&lt;/div&gt;" style="swimlane;startSize=50;horizontal=0;html=1;whiteSpace=wrap;" vertex="1" parent="1">
          <mxGeometry x="2930" y="1800" width="860" height="90" as="geometry" />
        </mxCell>
        <mxCell id="7Kr2viDx5YM8dAjct77x-32" value="" style="edgeStyle=orthogonalEdgeStyle;rounded=0;orthogonalLoop=1;jettySize=auto;html=1;" edge="1" parent="7Kr2viDx5YM8dAjct77x-31" source="7Kr2viDx5YM8dAjct77x-33" target="7Kr2viDx5YM8dAjct77x-34">
          <mxGeometry relative="1" as="geometry" />
        </mxCell>
        <mxCell id="7Kr2viDx5YM8dAjct77x-33" value="Select file from&lt;div&gt;source code&lt;/div&gt;" style="shape=rect;html=1;rounded=1;whiteSpace=wrap;align=center;fontSize=10;" vertex="1" parent="7Kr2viDx5YM8dAjct77x-31">
          <mxGeometry x="150" y="20" width="110" height="50" as="geometry" />
        </mxCell>
        <mxCell id="7Kr2viDx5YM8dAjct77x-34" value="" style="strokeWidth=2;html=1;shape=mxgraph.flowchart.decision;whiteSpace=wrap;" vertex="1" parent="7Kr2viDx5YM8dAjct77x-31">
          <mxGeometry x="325" y="15" width="60" height="60" as="geometry" />
        </mxCell>
        <mxCell id="7Kr2viDx5YM8dAjct77x-35" value="" style="edgeStyle=orthogonalEdgeStyle;rounded=0;orthogonalLoop=1;jettySize=auto;html=1;" edge="1" parent="7Kr2viDx5YM8dAjct77x-31" source="7Kr2viDx5YM8dAjct77x-36" target="7Kr2viDx5YM8dAjct77x-37">
          <mxGeometry relative="1" as="geometry" />
        </mxCell>
        <mxCell id="7Kr2viDx5YM8dAjct77x-36" value="&amp;nbsp; &amp;nbsp; &amp;nbsp;Interrupt" style="html=1;shape=mxgraph.sysml.accEvent;strokeWidth=2;whiteSpace=wrap;align=center;" vertex="1" parent="7Kr2viDx5YM8dAjct77x-31">
          <mxGeometry x="430" y="15" width="80" height="60" as="geometry" />
        </mxCell>
        <mxCell id="7Kr2viDx5YM8dAjct77x-37" value="Handle interrupt" style="shape=rect;html=1;rounded=1;whiteSpace=wrap;align=center;fontSize=10;" vertex="1" parent="7Kr2viDx5YM8dAjct77x-31">
          <mxGeometry x="640" y="20" width="110" height="50" as="geometry" />
        </mxCell>
        <mxCell id="7Kr2viDx5YM8dAjct77x-38" value="Database" style="swimlane;startSize=50;horizontal=0;html=1;whiteSpace=wrap;" vertex="1" parent="1">
          <mxGeometry x="2930" y="1890" width="860" height="100" as="geometry" />
        </mxCell>
        <mxCell id="7Kr2viDx5YM8dAjct77x-39" value="Load file form&amp;nbsp; &amp;nbsp;&amp;nbsp;&lt;div&gt;database&amp;nbsp; &amp;nbsp;&amp;nbsp;&lt;/div&gt;" style="html=1;shape=mxgraph.sysml.objFlowR;whiteSpace=wrap;fontSize=10;" vertex="1" parent="7Kr2viDx5YM8dAjct77x-38">
          <mxGeometry x="420" y="20" width="110" height="50" as="geometry" />
        </mxCell>
        <mxCell id="7Kr2viDx5YM8dAjct77x-40" style="edgeStyle=orthogonalEdgeStyle;rounded=0;orthogonalLoop=1;jettySize=auto;html=1;entryX=0.5;entryY=0;entryDx=0;entryDy=0;" edge="1" parent="1" source="7Kr2viDx5YM8dAjct77x-3" target="7Kr2viDx5YM8dAjct77x-33">
          <mxGeometry relative="1" as="geometry" />
        </mxCell>
        <mxCell id="7Kr2viDx5YM8dAjct77x-41" style="edgeStyle=orthogonalEdgeStyle;rounded=0;orthogonalLoop=1;jettySize=auto;html=1;entryX=0.5;entryY=1;entryDx=0;entryDy=0;entryPerimeter=0;" edge="1" parent="1" source="7Kr2viDx5YM8dAjct77x-37" target="7Kr2viDx5YM8dAjct77x-8">
          <mxGeometry relative="1" as="geometry" />
        </mxCell>
        <mxCell id="7Kr2viDx5YM8dAjct77x-42" style="edgeStyle=orthogonalEdgeStyle;rounded=0;orthogonalLoop=1;jettySize=auto;html=1;entryX=0;entryY=0.5;entryDx=0;entryDy=0;entryPerimeter=0;" edge="1" parent="1" source="7Kr2viDx5YM8dAjct77x-34" target="7Kr2viDx5YM8dAjct77x-28">
          <mxGeometry relative="1" as="geometry">
            <Array as="points">
              <mxPoint x="3285" y="1755" />
            </Array>
            <mxPoint x="3350" y="1755" as="targetPoint" />
          </mxGeometry>
        </mxCell>
        <mxCell id="7Kr2viDx5YM8dAjct77x-43" style="edgeStyle=orthogonalEdgeStyle;rounded=0;orthogonalLoop=1;jettySize=auto;html=1;entryX=0;entryY=0.5;entryDx=0;entryDy=0;entryPerimeter=0;" edge="1" parent="1" source="7Kr2viDx5YM8dAjct77x-34" target="7Kr2viDx5YM8dAjct77x-39">
          <mxGeometry relative="1" as="geometry">
            <Array as="points">
              <mxPoint x="3285" y="1935" />
            </Array>
            <mxPoint x="3350" y="1935" as="targetPoint" />
          </mxGeometry>
        </mxCell>
        <mxCell id="7Kr2viDx5YM8dAjct77x-44" style="edgeStyle=orthogonalEdgeStyle;rounded=0;orthogonalLoop=1;jettySize=auto;html=1;entryX=0.5;entryY=1;entryDx=0;entryDy=0;entryPerimeter=0;exitX=1;exitY=0.5;exitDx=0;exitDy=0;exitPerimeter=0;" edge="1" parent="1" source="7Kr2viDx5YM8dAjct77x-39" target="7Kr2viDx5YM8dAjct77x-7">
          <mxGeometry relative="1" as="geometry">
            <mxPoint x="3460" y="1935" as="sourcePoint" />
          </mxGeometry>
        </mxCell>
      </root>
    </mxGraphModel>
  </diagram>
</mxfile>
